<svg xmlns="http://www.w3.org/2000/svg" width="24" height="24" viewBox="0 0 24 24" fill="none">
  <!-- Converted from Android VectorDrawable to SVG -->
  <path d="M9 11C9.552 11 10 10.552 10 10C10 9.448 9.552 9 9 9C8.448 9 8 9.448 8 10C8 10.552 8.448 11 9 11Z" fill="#ffffff"/>
  <path d="M14 17C14 15.895 13.105 15 12 15C10.895 15 10 15.895 10 17H8C8 14.791 9.791 13 12 13C14.209 13 16 14.791 16 17H14Z" fill="#ffffff"/>
  <path d="M16 10C16 10.552 15.552 11 15 11C14.448 11 14 10.552 14 10C14 9.448 14.448 9 15 9C15.552 9 16 9.448 16 10Z" fill="#ffffff"/>
  <path fill-rule="evenodd" clip-rule="evenodd" d="M22 12C22 17.523 17.523 22 12 22C6.477 22 2 17.523 2 12C2 6.477 6.477 2 12 2C17.523 2 22 6.477 22 12ZM20 12C20 16.418 16.418 20 12 20C7.582 20 4 16.418 4 12C4 7.582 7.582 4 12 4C16.418 4 20 7.582 20 12Z" fill="#ffffff"/>
</svg>


