<svg xmlns="http://www.w3.org/2000/svg" xmlns:xlink="http://www.w3.org/1999/xlink" aria-hidden="true" role="img" class="iconify iconify--logos" width="35.93" height="32" preserveAspectRatio="xMidYMid meet" viewBox="0 0 256 228"><defs><linearGradient id="IconifyId1813088fe1fbc01fb466" x1="-128" x2="128" y1="0" y2="0" gradientUnits="userSpaceOnUse"><stop offset="0%" stop-color="#00D8FF"></stop><stop offset="100%" stop-color="#00D8FF"></stop></linearGradient></defs><path d="M210.483 73.824a171.49 171.49 0 0 0-8.24-2.597c.465-1.9.893-3.777 1.273-5.621c6.238-30.281 2.16-54.676-11.769-62.708c-13.355-7.7-35.196.329-57.254 19.526a171.23 171.23 0 0 0-6.375 5.848a155.866 155.866 0 0 0-4.241-3.917C100.759 3.829 77.587-4.822 63.673 3.233C50.33 10.957 46.379 35.83 52.4 66.627a170.974 170.974 0 0 0 1.892 8.48c-3.28.932-6.445 1.924-9.474 2.98C17.309 83.498 0 98.307 0 113.668c0 15.865 18.582 31.778 46.812 41.427a145.52 145.52 0 0 0 6.921 2.165a167.467 167.467 0 0 0-2.01 9.138c-6.023 30.796-2.072 55.669 11.273 63.393c13.915 8.055 37.086-.596 59.184-19.827a145.567 145.567 0 0 0 4.241-3.917a171.165 171.165 0 0 0 6.375 5.848c22.058 19.197 43.899 27.226 57.254 19.526c13.93-8.032 18.008-32.427 11.769-62.708a170.831 170.831 0 0 0-1.273-5.621c2.626-.84 5.18-1.718 7.659-2.637C229.099 145.446 256 130.533 256 113.668c0-15.361-17.309-30.17-45.517-39.844zM128.182 140.213c-14.618 0-26.463-11.845-26.463-26.463s11.845-26.463 26.463-26.463s26.463 11.845 26.463 26.463s-11.845 26.463-26.463 26.463z" fill="url(#IconifyId1813088fe1fbc01fb466)"></path><g fill="#00D8FF"><ellipse cx="128" cy="113.75" rx="19.327" ry="19.327"></ellipse><path d="M128 158.906c-25.327 0-49.402-12.067-64.375-32.375c-15.625-20.836-15.625-49.836 0-70.672C78.598 35.567 102.673 23.5 128 23.5s49.402 12.067 64.375 32.375c15.625 20.836 15.625 49.836 0 70.672C177.402 146.839 153.327 158.906 128 158.906zM128 33.719c-22.038 0-42.95 10.491-54.859 28.109c-12.375 18.375-12.375 43.375 0 61.75C85.05 141.196 105.962 151.687 128 151.687s42.95-10.491 54.859-28.109c12.375-18.375 12.375-43.375 0-61.75C170.95 44.21 150.038 33.719 128 33.719z"></path></g></svg> 